# xmcd
#
# Track frame offsets: 
#        150
#        18104
#        35874
#        57474
#        69234
#        83106
#        104898
#        124417
#        153751
#        168026
#        188344
#        214162
#        238332
#        266378
#        281981
#
# Disc length: 4073 seconds
#
# Revision: 0
# Processed by: cddbd v1.5.2PL0 Copyright (c) Steve Scherf et al.
# Submitted via: ExactAudioCopyFreeDBPlugin 1.0
#
DISCID=d40fe70f
DTITLE=2009-02 sav08085 - Судзуки and сочувствующие
DYEAR=2009
DGENRE=
TTITLE0=В самом сердце Византийской империи
TTITLE1=Километры
TTITLE2=SMSы
TTITLE3=Ты разрешаешь мне любить другую
TTITLE4=Луч последний
TTITLE5=Романс
TTITLE6=Ответ
TTITLE7=Взрослая любовь
TTITLE8=Двуспальная кровать
TTITLE9=Свет фонарей
TTITLE10=Пилигрим
TTITLE11=Птичьи слезы
TTITLE12=Вальс
TTITLE13=Рога
TTITLE14=Научи меня летать
EXTD=
EXTT0=
EXTT1=
EXTT2=
EXTT3=
EXTT4=
EXTT5=
EXTT6=
EXTT7=
EXTT8=
EXTT9=
EXTT10=
EXTT11=
EXTT12=
EXTT13=
EXTT14=
PLAYORDER=
